<?xml version="1.0" encoding="UTF-8"?>
<svg id="Capa_1" data-name="Capa 1" xmlns="http://www.w3.org/2000/svg" viewBox="0 0 841.89 595.28">
  <defs>
    <style>
      .cls-1 {
        fill: #1d1d1b;
        font-size: 198.16px;
      }

      .cls-1, .cls-2 {
        font-family: CascadiaMonoRoman-Bold, 'Cascadia Mono';
        font-variation-settings: 'wght' 700;
        font-weight: 700;
      }

      .cls-3 {
        fill: #000;
      }

      .cls-3, .cls-4 {
        stroke-width: 0px;
      }

      .cls-2 {
        fill: #4d4c4c;
        font-size: 224.83px;
      }

      .cls-4 {
        fill: #fff;
      }
    </style>
  </defs>
  <text class="cls-1" transform="translate(28.24 287.05)"><tspan x="0" y="0">WORLD</tspan></text>
  <text class="cls-2" transform="translate(267.7 462.09)"><tspan x="0" y="0">SEEK</tspan></text>
  <circle class="cls-4" cx="215.24" cy="355.57" r="106.52"/>
  <path class="cls-3" d="M296.09,407.08c-1.07,1.37-2.01,2.87-3.23,4.09-6.56,6.57-14.59,10.59-23.4,13.23-8.56,2.57-17.33,3.31-26.21,2.97-1.63-.06-2.81.41-4.01,1.56-6.92,6.66-14.79,11.89-23.71,15.52-.36.15-.72.3-1.07.47-.09.04-.14.16-.41.47,11.93,1.31,23.59.61,35.2-1.37-21.56,7.92-43.26,8.31-64.96.78-19.59-6.8-35.21-18.94-47-36.01,3.58,3.24,7.15,6.48,11.05,10.01.31-1.47.49-2.53.75-3.57,1.44-5.86,2.87-11.72,4.37-17.57.27-1.07.36-1.87-.65-2.65-7.86-6.1-14.89-13.03-20.71-21.14-.12-.17-.31-.29-.65-.6-1.64,7.19-2.21,14.31-2.09,21.51-.16.04-.32.07-.48.11-.68-1.96-1.74-3.88-1.97-5.9-.79-6.74-.87-13.51.16-20.24.26-1.67,0-3.13-.78-4.67-2.83-5.56-5.05-11.4-5.55-17.65-.24-2.95.45-5.98.81-8.96.17-1.42.55-2.81.97-4.2.88,7.88,3.3,15.22,7.23,22.5.39-1.04.68-1.74.92-2.46,2.38-7.14,5.55-13.91,9.47-20.32.81-1.32.78-2.34.11-3.7-3.81-7.76-6.08-15.88-5.03-24.61.19-1.59.83-3.26,1.7-4.6,1.78-2.74,3.87-5.29,5.96-7.85-2.68,10.45-.07,19.9,4.95,29.27.6-.73,1.02-1.22,1.43-1.73,5.13-6.38,10.78-12.27,17.15-17.43,1.24-1,1.34-1.84.72-3.26-2.56-5.91-3.79-12.04-2.45-18.48.86-4.12,2.97-7.56,5.87-10.56.16-.16.3-.36.49-.45,3.35-1.61,6.72-3.21,10.22-4.66-9.32,8.62-8.97,18.43-4.01,28.73,7.21-3.67,14.4-7.33,21.54-10.97-.6-2.21-1.5-4.64-1.9-7.14-.98-6.29,1.64-11.29,7.17-14.44,3.72-2.12,7.7-2.79,11.93-2.74,17.6.21,34.03,4.6,49.17,13.64,5.73,3.42,11.18,7.29,15.9,12,4.57,4.55,7.67,10.02,8.38,16.6.69,6.37-2.88,11.84-9.69,14.42-2.95,1.12-6.11,1.67-9.39,2.54.32,1.77.82,3.71,1,5.69.55,5.95,1.03,11.91,1.4,17.87.09,1.47.44,1.95,1.95,1.8,4.96-.5,9.93-.97,14.52-3.11,6.72-3.13,11.66-7.84,13.26-15.39.72-3.4.41-6.79-.28-10.16-.1-.49-.17-.98-.04-1.57.2.33.46.63.59.99,1.31,3.67,3.13,7.25,3.77,11.04,1.44,8.5-1.98,15.28-8.61,20.56-6.63,5.28-14.39,7.5-22.66,8.31-2.93.29-2.94.23-3.24,3.19-.81,7.91-2.18,15.72-4.36,23.38-.18.63-.31,1.27-.52,2.15.98.04,1.79.13,2.59.11,9.08-.23,17.92-1.65,26.19-5.66,5.22-2.53,9.74-5.96,12.84-10.96,1.06-1.71,1.77-3.64,2.68-5.56.39,7.02-2.2,12.8-6.83,17.77-6.25,6.71-14.2,10.49-22.96,12.43-5.48,1.22-11.16,1.55-16.73,2.37-.74.11-1.78.65-2.04,1.26-3.67,8.71-8.34,16.82-14.04,24.34-.12.16-.17.38-.4.94,17.08.05,33.21-2.38,47.31-12.65.11.12.21.23.32.35ZM221.88,294.36c5.62-4.26,11.35-8.22,17.64-11.24.1.14.2.27.3.41-4.76,4.34-9.51,8.69-14.48,13.22,5.58,3.44,11.15,6.25,17.32,8.21,1.57-6.07,3.08-11.95,4.6-17.83.22.02.43.05.65.07.06.61.22,1.22.16,1.82-.46,5.12-.95,10.24-1.45,15.36-.1,1.06-.23,2.04,1.22,2.26,4.91.73,9.82,1.49,14.73,2.21.4.06.83-.12,1.37-.2-1.58-7.35-4.18-14.2-6.85-21.06.53.21.83.51,1.05.86,3.74,5.93,7.03,12.08,9.18,18.77.4,1.24.98,1.6,2.2,1.23,1.71-.52,3.5-.79,5.15-1.45,5.56-2.25,8.03-6.88,6.92-12.79-.98-5.16-3.88-9.3-7.53-12.82-12.75-12.28-28.08-19.06-45.66-20.67-4.82-.44-9.63-.02-14.16,1.93-6.93,2.98-9.25,8.8-6.42,15.79.46,1.14.95,1.5,2.23,1.16,7.55-1.98,15.24-3,23.04-3.12.54,0,1.08.08,1.62.13,0,.15,0,.29,0,.44-8.27,1.2-16.41,2.93-24.36,5.98,3.24,4.6,7.13,8.15,11.54,11.32ZM174.09,365.4c-3.8,8.03-7.45,15.81-11.14,23.56-.54,1.14.28,1.49.96,1.94,9.98,6.66,20.58,12.12,31.7,16.61,1.18.48,1.79.25,2.42-.85,3.38-5.98,6.84-11.91,10.25-17.88.9-1.57,1.71-3.2,2.63-4.95-12.98-4.66-25.08-10.59-36.81-18.44ZM216.5,372.9c3.85-8.65,7.63-17.16,11.49-25.82-11-4.79-21.96-9.14-31.84-16.25-5.32,8.02-10.5,15.83-15.76,23.76,11.42,7.64,23.26,13.56,36.12,18.32ZM256.34,392.92c-1.06-.13-1.77-.25-2.49-.29-11.66-.62-23.07-2.71-34.25-6.06-1.3-.39-1.88,0-2.53,1.09-4.33,7.24-8.73,14.43-13.1,21.64-.19.31-.32.65-.5,1.04.43.18.72.33,1.04.43,11.09,3.76,22.42,6.48,34.06,7.9,1.47.18,2.5-.27,3.28-1.47,3.31-5.1,6.73-10.14,9.9-15.33,1.7-2.78,3-5.82,4.58-8.95ZM223.76,375.22c.42.19.71.36,1.02.46,11.15,3.44,22.54,5.63,34.18,6.52,1.21.09,1.75-.39,2.02-1.46,1.47-5.79,3.04-11.56,4.38-17.37.69-3.01.98-6.12,1.48-9.35-11.01-.24-21.49-2.06-31.89-4.99-3.76,8.8-7.46,17.46-11.19,26.19ZM190.15,326.59c-7.3-5.71-13.89-12.16-19.07-19.98-.44.33-.67.48-.88.66-6.57,5.95-12.46,12.5-17.76,19.6-.71.95-.28,1.47.24,2.17,5.13,6.84,11.13,12.82,17.76,18.19,1.25,1.01,2.52,1.98,3.71,2.91,5.36-7.9,10.62-15.64,15.99-23.54ZM157.04,386.52c.5-1.14.71-1.65.94-2.16,3.18-7.2,6.32-14.42,9.58-21.59.55-1.2.46-1.77-.6-2.58-6.11-4.66-11.72-9.86-16.67-15.75-1.71-2.04-3.32-4.15-5.13-6.42-.15.28-.22.43-.31.57-4.29,7.24-7.66,14.9-10.27,22.89-.26.78.06,2.06.59,2.74,2.37,3.04,4.7,6.15,7.43,8.86,4.58,4.56,9.45,8.83,14.44,13.45ZM158.78,399.48c-.29.71-.56,1.26-.75,1.83-1.94,5.95-3.83,11.92-5.83,17.84-.5,1.49-.19,2.33,1.08,3.22,6.99,4.87,14.36,9.07,22.1,12.62,1.25.57,2,.49,2.83-.62,4.1-5.45,8.25-10.86,12.37-16.29.29-.38.48-.83.81-1.42-11.55-4.53-22.38-10.14-32.61-17.18ZM181.09,437.24c.56.26.99.5,1.44.67,7.13,2.67,14.42,4.78,21.92,6.15,1.84.34,3.51.15,5.21-.62,5.48-2.48,10.6-5.54,15.3-9.27,2.81-2.24,5.5-4.64,8.51-7.2-1-.2-1.53-.35-2.07-.41-11.21-1.24-22.15-3.71-32.82-7.35-1.22-.42-1.8.11-2.52.95-4.65,5.36-9.36,10.67-14.05,16-.28.32-.56.65-.93,1.09ZM203.64,321.08c9.15,6.19,18.6,10.92,28.8,14.61,2.62-7.52,5.2-14.93,7.77-22.31-3.7-1.53-7.32-2.87-10.8-4.49-3.48-1.63-6.82-3.55-10.52-5.49-4.97,5.76-10.03,11.63-15.26,17.69ZM238.85,337.65c.34.17.58.34.83.41,8.56,2.44,17.23,4.24,26.13,4.79,1.29.08,1.88-.27,1.78-1.65-.52-7.29-1.03-14.58-1.49-21.87-.1-1.57-.82-1.95-2.33-2.07-4.44-.37-8.87-.95-13.29-1.53-1.8-.24-3.57-.68-5.43-1.05-2.1,7.77-4.14,15.35-6.2,22.97ZM197.38,316.54c5.84-5.51,11.52-10.86,17.3-16.31-5.05-3.87-9.4-8.02-12.98-12.95-.2-.27-1.12-.3-1.53-.09-3.09,1.56-6.21,3.09-9.18,4.86-3.59,2.13-7.04,4.49-10.66,6.82,4.99,7.19,10.95,13,17.05,17.68Z"/>
</svg>